<svg xmlns="http://www.w3.org/2000/svg" viewBox="0 0 600 600"><rect x="-0.5" y="0.41" width="600" height="600" style="fill:#5829ed;stroke:#000;stroke-miterlimit:10"/><path d="M521.53,291.61c0,104.17-99.18,188.62-221.53,188.62a255.86,255.86,0,0,1-76.45-11.54c-52.77-9.39-126,28.31-126,28.31S141.44,429.53,110,389.05l.64.44c-20.38-28.53-32.12-62-32.12-97.88C78.47,187.45,177.65,103,300,103S521.53,187.45,521.53,291.61Z" style="fill:#fff"/><path d="M314.08,366.08a19.91,19.91,0,0,0-3.46-8.33,28.07,28.07,0,0,0-8.16-7.27l-12.27-7.67,14.39-1.54A152.46,152.46,0,0,0,342,332.46a136.72,136.72,0,0,0,26.37-13,110.26,110.26,0,0,1-9.68-14.34A194.37,194.37,0,0,1,348.35,284a185.22,185.22,0,0,1-7.54-21.84c-1.56-5.66-2.81-11.12-3.73-16.29-5,.12-9.81.29-14.33.49-5.86.26-11.41.58-16.48,1l-5.38.4V218.18l5.33.35c9.93.65,21.35,1.14,34,1.46,11,.28,24.24.44,39.52.48a134.76,134.76,0,0,0-7.4-17l-2.95-5.73,33-7.57.68,5.5c.5,4,1.3,8.6,2.38,13.67.8,3.78,1.7,7.49,2.69,11.07,13.46-.12,25.34-.31,35.36-.55,10.91-.26,20.87-.71,29.6-1.36l5.37-.39v29.54l-5.36-.38c-5.4-.39-11.26-.68-17.41-.87l-16.39-.54c-3,17.27-7.28,32-12.67,43.89a127.63,127.63,0,0,1-17.34,28.48c20.75,13.47,43.42,20.29,67.47,20.29,1.2,0,2.4,0,3.61,0l14.9-.42-11.64,9.32c-2.47,2-4.56,3.78-6.22,5.37a35.29,35.29,0,0,0-3.93,4.44,30.35,30.35,0,0,0-2.69,4.37,32.47,32.47,0,0,0-1.95,4.93l-1.3,4.16-4.3-.71a151.9,151.9,0,0,1-22.07-5.47A203.73,203.73,0,0,1,420,356.27a209.53,209.53,0,0,1-19.05-9.82A143.41,143.41,0,0,1,388,338c-3.94,2.77-8.31,5.57-13,8.35-6,3.52-12.21,6.88-18.54,10s-12.78,5.92-19,8.3a136.51,136.51,0,0,1-17.27,5.48L315,371.32Zm49.75-120.53q.93,4.81,2.38,10.24a139.62,139.62,0,0,0,6.14,17.75A138,138,0,0,0,381.23,291,73.49,73.49,0,0,0,389,301.69c1.79-2.14,3.53-4.42,5.18-6.82a74.79,74.79,0,0,0,7.23-13.58,120.59,120.59,0,0,0,5.73-18,180.13,180.13,0,0,0,3.29-17.79Zm22.7-20.07a131.71,131.71,0,0,0-9.78-24.27l21.33-4.9q.78,6.27,2.45,14.1t3.82,15.07q22.69-.19,39.24-.59t29.85-1.37v18.79q-8.22-.59-17.62-.88t-20.74-.69q-4.51,28.18-13,47T401.8,319.23q36,25.45,78.69,24.27-3.93,3.13-6.56,5.68a39.51,39.51,0,0,0-4.5,5.09,34.53,34.53,0,0,0-3.14,5.09A38.27,38.27,0,0,0,464,365a144.63,144.63,0,0,1-21.33-5.28,199.77,199.77,0,0,1-20.65-8,203.29,203.29,0,0,1-18.59-9.59,131,131,0,0,1-15.37-10.37A178.37,178.37,0,0,1,372.44,342q-8.81,5.18-18.2,9.78t-18.6,8.12A133.66,133.66,0,0,1,319,365.23a25.14,25.14,0,0,0-4.31-10.37,32.71,32.71,0,0,0-9.59-8.62,156.69,156.69,0,0,0,38.66-9.1,135.43,135.43,0,0,0,32-16.73,101,101,0,0,1-12.72-17.82A184.34,184.34,0,0,1,353,282a175.64,175.64,0,0,1-7.34-21.23,165.12,165.12,0,0,1-4.31-20.07q-10,.21-18.79.59t-16.64,1V223.52q15.08,1,34.16,1.47T386.53,225.48ZM358,240.55a129.1,129.1,0,0,0,3.42,16.54,144.78,144.78,0,0,0,15.56,36.5,75.73,75.73,0,0,0,12.14,15.46,89,89,0,0,0,9.2-11.35A79,79,0,0,0,406,283.22a127.08,127.08,0,0,0,6-18.69,202.49,202.49,0,0,0,4.11-24Z" style="fill:#5829ed"/><path d="M258.93,369.06l-14.8-37.13H167.62l-14.81,37.13H118.19l71.26-177.34H222l71.53,177.34Zm-25-65.7-28-71.43L177.6,303.36Zm28.41,60.7-14.8-37.13H164.23l-14.81,37.13H125.59l67.24-167.34h25.84l67.49,167.34ZM205.87,218.3l-35.62,90.06h71Z" style="fill:#5829ed"/></svg>